<?xml version="1.0" encoding="utf-8"?>
<!-- Generator: Adobe Illustrator 22.1.0, SVG Export Plug-In . SVG Version: 6.00 Build 0)  -->
<svg version="1.1" id="Logo" xmlns="http://www.w3.org/2000/svg" xmlns:xlink="http://www.w3.org/1999/xlink" x="0px" y="0px"
	 viewBox="0 0 792 612" style="enable-background:new 0 0 792 612;" xml:space="preserve">
<style type="text/css">
	.st0{fill:#191919;}
	.st1{fill:#5C5C5C;}
	.st2{fill:#353535;}
	.st3{fill:#F15A29;}
	.st4{fill:#E3E3E3;}
	.st5{fill:none;}
	.st6{fill:none;stroke:#2E3192;stroke-miterlimit:10;}
	.st7{fill:none;stroke:#262262;stroke-miterlimit:10;}
	.st8{fill:#262262;stroke:#262262;stroke-width:5.000000e-02;stroke-miterlimit:10;}
</style>
<path class="st0" d="M281.4,193.3c1.1-1,2.2-2.2,3.1-3.4c0.4-0.6,0.5-1.3,0.7-1.9c0.3-1.5,0.4-3,0.2-4.5c0,0,0,0,0.1-0.1
	c0.5,1.5,0.5,3.1,0.2,4.6c0.1-0.1,0.2-0.2,0.2-0.3c1.1-1.9,1.6-3.9,2-6.1c0.4-2.6,0.5-5.3,0.4-7.9c0-0.1,0-0.2,0-0.3
	c0-0.1-0.1-0.3,0.1-0.4c0.4,2.1,0.5,4.2,0.5,6.3c0.5-1,1.1-1.9,2-2.6c0,0.1,0,0.1,0,0.1c-1.3,1.5-2,3.3-2.3,5.4
	c-0.3,1.8-0.8,3.5-1.5,5.1c0,0.1,0,0.1-0.1,0.2c0.1,0.1,0.1,0,0.2,0c0.7-0.3,1.5-0.5,2.2-0.9c1.9-0.9,3.5-2.2,4.7-4.2
	c0.3-0.6,0.6-1.2,0.8-1.8c-0.2,1.5-0.8,2.7-1.7,3.8c-0.9,1.1-2,1.9-3.2,2.6c1,0,1.9,0.1,2.8,0.4c0.2,0,0.4,0,0.6,0.2
	c0.1,0.1,0.2,0.1,0.2,0.3c-0.6-0.2-1.2-0.4-1.8-0.5c-1.9-0.2-3.7,0.2-5.2,1.6c-0.2,0.2-0.4,0.5-0.6,0.7c-1.1,1.7-2.3,3.3-3.8,4.6
	c0,0,0,0,0,0C281.7,194.3,281.3,193.6,281.4,193.3C281.3,193.3,281.4,193.3,281.4,193.3z"/>
<path class="st0" d="M259.2,203.5c-0.7,0-1.4-0.1-1.9-0.3c-1-0.5-2-1.2-2.8-2.1c-0.1-0.1-0.1-0.2,0.1-0.3c2.9-1.4,5.4-1,7.7,1.6
	c0.1,0.1,0.1,0.2-0.1,0.3C261.2,203.2,260.2,203.6,259.2,203.5z"/>
<path class="st1" d="M248.8,189.5c-0.8,0-0.8,0.1-0.5-0.7c0.4-1,0.9-1.9,1.7-2.7c1.3-1.4,2.9-1.7,4.7-1.7c0.2,0,0.2,0.1,0.1,0.3
	c-0.8,2.5-2.2,4.2-4.7,4.7c-0.1,0-0.3,0.1-0.4,0.1C249.3,189.5,249,189.6,248.8,189.5z"/>
<path class="st2" d="M275.3,168.9c-0.5,0-0.5,0.1-0.3-0.5c0.5-1.3,1.1-2.5,2.2-3.4c1-0.9,2.1-1.2,3.3-1.3c0.2,0,0.5,0,0.7-0.1
	c0.2,0,0.3,0.1,0.2,0.3c-0.8,2.7-2.3,4.6-5.4,5C275.7,168.9,275.5,168.9,275.3,168.9z"/>
<path class="st3" d="M293.5,188.1c0-0.1,0-0.2,0.2-0.2c1.1,0.2,2.2,0.6,3.1,1.4c1.4,1.2,2.1,2.9,2.4,4.8c0,0.2,0,0.3-0.2,0.2
	c-2.5-0.5-4.3-1.9-5.1-4.5C293.7,189.2,293.5,188.6,293.5,188.1z"/>
<path class="st1" d="M289.3,192.3c0,1-0.2,1.9-0.5,2.9c-0.1,0.2-0.1,0.3-0.4,0.1c-2.5-2.3-3-5-2-8.2c0.1-0.2,0.1-0.3,0.3-0.1
	c1.3,1.2,2.3,2.6,2.5,4.5C289.3,191.7,289.3,192,289.3,192.3z"/>
<path class="st1" d="M287.7,171.3c0,1.5-0.2,2.5-0.7,3.6c-0.1,0.2-0.2,0.3-0.3,0.1c-1.2-1.3-2.1-2.8-2.2-4.7
	c-0.1-1.3,0.2-2.5,0.7-3.7c0.1-0.2,0.1-0.2,0.2-0.1C286.7,167.9,287.7,169.6,287.7,171.3z"/>
<path class="st3" d="M296.3,177c0,1.6-0.8,3.1-2,4.5c-0.2,0.2-0.2,0.1-0.3-0.1c-1.2-2.6-1.2-5.2,0.5-7.6c0.2-0.3,0.4-0.5,0.6-0.8
	c0.1-0.2,0.2-0.2,0.3,0.1C296,174.2,296.3,175.4,296.3,177z"/>
<path class="st3" d="M270,168.8c-1.2-0.2-2.1-0.6-3-1.2c-0.2-0.1-0.2-0.2,0-0.3c1.8-1.2,3.8-1.5,6-0.5c0.4,0.2,0.8,0.4,1.1,0.6
	c0.1,0.1,0.1,0.2,0,0.3C272.9,168.5,271.5,169,270,168.8z"/>
<path class="st0" d="M289.9,177.4c0-1.5,0.3-2.8,1.1-4c0.6-0.9,1.4-1.6,2.3-2.1c0.2-0.1,0.4-0.2,0.6-0.4c0.2-0.1,0.3-0.1,0.3,0.2
	c0.2,3.3-0.9,5.8-4.1,7.3c-0.2,0.1-0.2,0.1-0.2-0.2C289.9,177.9,289.9,177.6,289.9,177.4z"/>
<path class="st1" d="M274.9,159.8c-0.1,1.7-0.6,3.3-1.8,4.5c-0.5,0.5-1.1,1-1.8,1.3c-0.4,0.2-0.7,0.4-1.1,0.6
	c-0.2,0.1-0.4,0.1-0.3-0.3c0.2-3.1,1.3-5.2,4-6.4c0.2-0.1,0.5-0.2,0.8-0.3c0.3-0.1,0.3,0,0.3,0.3
	C274.9,159.6,274.9,159.7,274.9,159.8z"/>
<path class="st2" d="M285.8,190.1c0.1,0.4,0.3,0.7,0.6,1.1c0,0.1,0,0.2,0.1,0.4c0.4,1.3,0.5,2.5,0.3,3.9c0,0.3-0.1,0.3-0.3,0.2
	c-0.9-0.6-1.7-1.2-2.4-2.2c-0.1-0.1-0.1-0.1-0.2-0.2c-0.3-0.6-0.6-1.2-0.8-1.9c-0.2-1.1-0.3-2.1-0.1-3.2c0-0.3,0.1-0.3,0.3-0.2
	c0.8,0.5,1.6,1.2,2.2,2C285.5,190,285.6,190.1,285.8,190.1z"/>
<path class="st0" d="M283.2,175.9c-1.7,0-3.2-1-4.4-2.5c-0.1-0.2-0.1-0.2,0.1-0.3c2.8-1.4,5.4-1,7.7,1.7c0.2,0.2,0.1,0.2-0.1,0.3
	C285.4,175.6,284.4,175.9,283.2,175.9z"/>
<path class="st2" d="M258.7,167c-0.3-0.3-0.7-0.9-1.2-1.5c-0.1-0.2-0.1-0.3,0.1-0.2c1.4,0.2,2.9,0.6,4.4,1.9
	c0.8,0.7,1.5,1.5,2.1,2.4c0.1,0.2,0.1,0.2-0.1,0.2C262.3,169.8,260.6,169.1,258.7,167z"/>
<path class="st1" d="M290.8,170.6c0,1.7-0.7,3.1-1.6,4.4c-0.1,0.2-0.2,0.2-0.3,0c-1.7-2.9-1.6-5.7,0.4-8.5c0.1-0.2,0.2-0.2,0.3,0
	C290.3,167.8,290.7,169.1,290.8,170.6z"/>
<path class="st0" d="M256,177.4c-3-0.1-5.2-2-6.1-5.1c-0.1-0.2-0.1-0.3,0.2-0.3c3,0.2,5.1,1.6,6.2,5.1
	C256.5,177.6,256.1,177.3,256,177.4z"/>
<path class="st3" d="M250.9,181.3c-0.3,0-0.7,0-1-0.1c-0.2,0-0.3-0.1-0.2-0.3c1-2,2.4-3.5,4.5-3.9c0.8-0.1,1.6-0.1,2.4,0
	c0.1,0,0.3,0,0.2,0.2c-0.8,1.7-2,3.1-3.8,3.7C252.4,181.2,251.7,181.3,250.9,181.3z"/>
<path class="st1" d="M263.9,198.4c-0.1,1.7-0.6,3.1-1.6,4.4c-0.1,0.2-0.2,0.1-0.3,0c-1.7-3-1.6-5.7,0.4-8.5c0.1-0.1,0.2-0.2,0.3,0
	C263.4,195.5,263.9,196.9,263.9,198.4z"/>
<path class="st1" d="M255.7,178.1c0.4-3,1.7-5,4.1-5.9c0.4-0.1,0.7-0.3,1.1-0.4c0.2,0,0.2,0,0.2,0.2c-0.2,1.8-0.7,3.4-2,4.6
	c-0.9,0.9-2,1.4-3.2,1.7C255.7,178.4,255.6,178.4,255.7,178.1z"/>
<path class="st2" d="M261.2,200.2c0,0.2-0.1,0.2-0.2,0.2c-2.9-0.7-4.5-2.4-5.1-5.2c-0.1-0.3-0.1-0.7-0.2-1c0-0.2,0-0.3,0.2-0.3
	c3.1,0.7,4.7,2.7,5.2,5.8C261.1,199.9,261.1,200.1,261.2,200.2z"/>
<path class="st2" d="M286.3,183.3c0,0.4-0.1,1.1-0.2,1.8c0,0.2-0.1,0.2-0.2,0.1c-1.6-1.1-2.8-2.6-3.1-4.7c-0.2-1.1-0.1-2.2,0.2-3.2
	c0-0.2,0.1-0.2,0.2-0.1C285,178.6,286.3,180.4,286.3,183.3z"/>
<path class="st3" d="M258.6,192c2.9,0,4.7,1.5,5.9,4.3c0.1,0.2,0.1,0.3-0.2,0.3c-3.2,0.3-5.3-1.2-6.6-4.3c-0.1-0.3,0-0.3,0.2-0.3
	C258.2,192,258.4,192,258.6,192z"/>
<path class="st1" d="M299.7,182.9c0.1,0,0.2,0,0.3,0c0.6,0,0.6,0,0.4,0.7c-0.6,1.4-1.4,2.6-2.7,3.4c-1.2,0.7-2.4,0.9-3.7,0.8
	c-0.2,0-0.2-0.1-0.1-0.3c0.8-2.2,2.2-3.8,4.4-4.4c0.2-0.1,0.4-0.2,0.6-0.1C299.1,182.8,299.4,182.8,299.7,182.9z"/>
<path class="st2" d="M288,204.8c-0.2,0-0.2-0.1-0.1-0.2c0.5-2.7,1.8-4.7,4.4-5.5c0.4-0.1,0.9-0.2,1.3-0.3c0.2,0,0.3,0,0.2,0.2
	c-0.7,3.4-2.5,5.1-5.2,5.7C288.4,204.7,288.2,204.7,288,204.8z"/>
<path class="st0" d="M272.7,164.1c0-1.5,0.4-2.8,1-3.9c0.1-0.2,0.1-0.2,0.3,0c2.2,2.7,2.4,5.5,0.8,8.5c-0.1,0.1-0.1,0.2-0.2,0
	C273.4,167.3,272.7,165.8,272.7,164.1z"/>
<path class="st3" d="M264.9,167.8c0,1.3-0.3,2.4-0.7,3.4c-0.1,0.2-0.2,0.3-0.3,0.1c-2.3-2.4-2.8-5.1-1.5-8.3
	c0.1-0.2,0.1-0.3,0.3-0.1c1.1,1.1,1.9,2.4,2.2,4.1C264.9,167.3,264.9,167.6,264.9,167.8z"/>
<path class="st2" d="M265.6,159.8c0-0.5,0-0.5,0.3-0.4c1.7,0.6,3.1,1.6,3.9,3.4c0.5,1,0.7,2.1,0.7,3.3c0,0.2,0,0.3-0.3,0.2
	c-2.9-1-4.3-3.1-4.6-6C265.7,160.1,265.6,159.9,265.6,159.8z"/>
<path class="st2" d="M295.1,183.3c-0.5,0-0.9-0.1-1.4-0.1c-0.2,0-0.3-0.1-0.1-0.3c1.3-2.4,3.1-3.9,5.7-3.8c0.4,0,0.9,0.1,1.3,0.1
	c0.2,0,0.2,0.1,0.1,0.3C299.4,182,297.6,183.3,295.1,183.3z"/>
<path class="st1" d="M268.8,200.2c0-2.5,1.2-4.3,3.1-5.7c0.2-0.1,0.2-0.1,0.3,0.1c0.8,3.3,0,5.9-2.7,7.9c-0.2,0.1-0.2,0.1-0.3-0.1
	c-0.1-0.4-0.2-0.7-0.2-1.1C268.8,201,268.8,200.6,268.8,200.2z"/>
<path class="st1" d="M290.8,207.3c0,1.6-0.3,2.7-0.8,3.8c-0.1,0.2-0.2,0.3-0.3,0.1c-1-1.1-1.7-2.4-2-3.9c-0.2-1.6,0.1-3.1,0.8-4.5
	c0.1-0.1,0.1-0.2,0.2,0C289.9,204.1,290.8,205.7,290.8,207.3z"/>
<path class="st2" d="M249.4,186.3c-1,0-2.2-0.6-3.4-1.4c-0.2-0.1-0.1-0.2,0-0.3c1.2-1,2.6-1.7,4.2-1.6c1.3,0.1,2.5,0.6,3.6,1.4
	c0.2,0.1,0.1,0.2,0,0.3C252.9,185.7,251.2,186.3,249.4,186.3z"/>
<path class="st0" d="M416.4,696.2"/>
<path class="st0" d="M419.5,695.7"/>
<path class="st0" d="M413.9,693.5"/>
<path class="st4" d="M220.8,189c0.3,0.2,0.5,0.3,0.8,0.5c-0.1,0-0.1,0-0.2,0.1c-0.2-0.2-0.5-0.3-0.8-0.5
	C220.7,189,220.8,189,220.8,189z"/>
<path class="st5" d="M216.5,174.6c-0.1,0.1,0,0.3-0.1,0.4c-0.1-0.3-0.1-0.5-0.1-0.9C216.5,174.4,216.5,174.5,216.5,174.6z"/>
<circle class="st6" cx="643.4" cy="677.4" r="2.7"/>
<circle class="st6" cx="632.8" cy="658.8" r="2.7"/>
<ellipse class="st7" cx="303.3" cy="234.8" rx="99.6" ry="93.3"/>
<path class="st0" d="M282.5,194.5c-2.3,1.6-4,3.7-4.8,6.4c-0.1,0.2-0.1,0.5,0,0.7c0.7,3,1.3,6,1.6,9c0,0,0,0.1,0.1,0.2
	c0.3-0.3,0.5-0.6,0.8-0.9c1.1-1.5,2.2-3,3.2-4.6c1.6-2.8,2.8-5.7,3.3-8.9c0.1-0.9,0.2-1.9,0.3-2.8c0.3,0.9,0.1,3.8-0.3,5.6
	c-0.4,1.9-1,3.6-1.8,5.4c1.5-1,3.2-1.7,5.1-1.8c-0.2,0.2-0.3,0.2-0.5,0.2c-2,0.6-3.8,1.7-5.3,3.2c-0.2,0.2-0.4,0.4-0.5,0.6
	c-1.1,1.9-2.3,3.8-3.8,5.4c-0.1,0.1-0.2,0.3-0.1,0.5c0.4,3.3,0.6,6.6,0.7,9.8c0.1,3,0.1,6,0.1,9c0,0.4,0.1,0.4,0.4,0.4
	c4.9,0,9.8,0,14.7,0.1c2.3,0,4.5,0.1,6.8,0.1c0.3,0,0.6,0,0.8,0.1c-16.6,0.3-33.1,0.3-49.7,0c0.3-0.1,0.5-0.1,0.8-0.1
	c5.5-0.2,11.1-0.2,16.6-0.2c1.2,0,2.4,0,3.6,0c0.3,0,0.4-0.1,0.4-0.3c0.2-1.5,0.3-3.1,0.5-4.6c0.2-1.9,0.4-3.7,0.5-5.6
	c0.2-2.1,0.3-4.1,0.4-6.2c0.1-0.8-0.2-1.4-0.7-2.1c-0.9-1.2-2-2.1-3-3.1c-1.7-1.5-3.2-3.1-4.5-4.9c-0.1-0.2-0.3-0.4-0.5-0.5
	c-2-1.5-4.2-2.4-6.7-2.7c2.2-0.2,4.2,0.5,6.1,1.5c-1.3-2.5-2.2-5.1-1.8-8c0.1,0.9,0.2,1.8,0.4,2.7c0.2,0.9,0.5,1.8,0.9,2.7
	c0.4,0.8,0.8,1.7,1.3,2.4c0.5,0.8,1.1,1.5,1.7,2.2c-0.5-1.6-0.7-3.3-0.2-4.9c0,0.7,0,1.4,0.1,2.1c0.2,1.5,0.6,2.8,1.3,4.1
	c0.4,0.6,1,1,1.5,1.5c1.4,1.2,3,2.2,4.2,3.5c0,0,0,0,0.1,0c0,0,0,0,0-0.1c0.2-4.7-0.4-9.3-2.2-13.7c-0.8-1.9-2-3.6-3.5-5.1
	c-0.1-0.1-0.2-0.3-0.4-0.3c-0.2,0-0.1,0.3-0.1,0.4c-0.3,2.1-1.5,3.6-3.2,4.8c-0.4,0.2-0.7,0.5-1.1,0.7c-0.2,0.1-0.3,0.1-0.3-0.1
	c-0.5-2.8,0-5.3,2.3-7.3c0.3-0.2,0.2-0.3-0.1-0.4c-1.6-0.8-3.2-1.7-4.6-2.8c-0.7-0.5-1.4-1-1.9-1.6c-0.5-0.6-1.3-0.8-2-1.1
	c-1.8-0.7-3.6-0.9-5.5-0.8c-0.1,0-0.2,0-0.3,0c2.1-0.6,4.2-0.4,6.4,0.4c-1.9-2.2-3.3-4.6-3.6-7.5c0.3,1,0.6,1.9,1.1,2.8
	c1.2,2.4,3,4.3,5,6c1.7,1.5,3.7,2.5,5.8,3.4c0.2,0.1,0.4,0.1,0.6,0.3c0.4,0.3,0.8,0.4,1.2,0c0.2-0.2,0.3-0.1,0.3,0.2
	c0,0.6,0.3,1,0.9,1.2c0-0.1-0.1-0.2-0.1-0.4c-0.7-1.8-1.4-3.7-1.9-5.7c-0.6-2.5-1.1-5-1.2-7.5c0-1.1-0.5-2-1-3
	c-0.7-1.4-1.8-2.8-2.9-3.7c0.8,0.4,1.5,1,2.2,1.7c0.6,0.7,1.2,1.5,1.6,2.3c0.1-1.9,0.4-3.7,0.9-5.6c0.5-1.8,1.2-3.6,2.3-5.1
	c-0.2,0.6-0.5,1.2-0.7,1.7c-1.3,3.4-1.6,7-1.4,10.6c0.2,2.4,0.6,4.7,1.2,6.9c0,0.1,0,0.3,0.2,0.3c0.2,0,0.4,0,0.5-0.2
	c0.8-1.5,2-2.8,2.8-4.3c1-1.9,1.7-3.9,1.9-6.1c0.1-1.5,0-3.1-0.5-4.6c0-0.1-0.1-0.2-0.1-0.3c0.3,0.3,0.7,1.3,1,2.5
	c0.2,0.9,0.2,1.8,0.2,2.7c-0.1,0.9-0.2,1.8-0.5,2.8c0.6-0.6,1.1-1.2,1.7-1.6c0.6-0.4,1.2-0.8,1.9-1.1c-0.6,0.4-1.2,0.9-1.7,1.4
	c-1.2,1.1-2.2,2.4-2.8,3.9c-0.6,1.3-1.3,2.6-2.1,3.8c-0.1,0.2-0.3,0.4-0.4,0.7c2.7-0.2,4.8,0.9,6.6,2.7c-0.4,0.4-0.9,0.6-1.4,0.7
	c-2,0.7-4,0.7-6-0.3c-0.2-0.1-0.3,0-0.3,0.2c0,0.2,0.1,0.3,0.1,0.4c0.8,2.2,1.8,4.3,3,6.3c0.9,1.5,1.7,3.1,2.4,4.8
	c0.5-0.8,0.9-1.5,1.5-2.1c0.4-0.5,0.9-1,1.4-1.4c0.3-0.2,0.5-0.5,0.6-0.9c0.3-0.8,0.5-1.6,0.6-2.4c0.1-0.9-0.1-1.7-0.4-2.5
	c-0.5-1.6-1.2-3.1-2.5-4.3c1.6,0.9,2.3,2.5,3,4.1c0.1-0.2,0.1-0.3,0.1-0.4c0-2.9,0.4-5.7,1.5-8.4c0.9-2.1,2.1-4,4-5.4
	c0.1,0,0.1-0.1,0.2-0.1c0.1,0.1,0,0.1,0,0.2c-2.3,2.2-3.6,4.9-4.2,7.9c-0.4,1.9-0.5,3.9-0.5,5.8c-0.4,0.6-0.4,1.3-0.3,2
	c0,0.9,0.2,1.8,0.6,2.7c0.1,0.3,0.3,0.6,0.4,0.9C282.5,194.2,282.7,194.4,282.5,194.5z"/>
<g>
	<path class="st8" d="M247.8,278.1c4.2,2,10.8,3.5,20,4.3c6.7,0.6,13.6,0.9,20.7,1c8.1,0.2,16.2,0,24.3,0c8.9-0.1,17.8-0.2,26.8-0.1
		c6.4,0.1,12.6,0.4,18.3,1.2c5.7,0.7,9.7,1.8,13,3c4.4,1.7,6.4,3.5,6.9,5.5c0.3,1.2,0.3,2.3-0.3,3.4c-2,3.7-9.1,6.5-23.9,8.3
		c-5.9,0.7-12.1,1.1-18.7,1.2c-0.2,0-0.3,0-0.5,0c-1,0.1-1.9,0.1-2.9,0.2c-3.5-0.2-7-0.1-10.4-0.2c-2.2,0-4.3-0.1-6.2-0.4
		c-2.6-0.4-3.3-0.8-2.3-1.5c1.5-1,4.4-1.7,8.6-2.1c2.2-0.2,4.5-0.1,6.6,0.1c2.4,0.2,4.8,0.4,7.5,0.5c2.9,0,5.7,0,8.4-0.2
		c11.1-0.8,17.2-2.6,19.4-5.1c0.9-1,0.5-2.1-1.2-3.1c-1.7-1-5-1.7-9.4-2.2c-4.4-0.4-9.2-0.7-14-0.7c-3-0.1-6-0.1-9-0.1
		c-4.7,0-9.3,0.1-14,0.2c-2.8,0-5.6,0.1-8.3,0.1c-4.8,0-9.7,0.2-14.5,0c-2.2-0.1-4.5,0-6.7-0.1c-10-0.2-19.7-0.6-28.8-1.7
		c-11.2-1.2-19.7-3.1-25.4-5.6c-4.7-2.1-7.4-4.3-8.3-6.6c-0.4-1.1-0.5-2.1-0.4-3.2c0.1-0.4-0.1-0.8,0.1-1.2c0.1-1.4,0.5-2.8,1.3-4.2
		c1.7-3,5.1-5.9,10.2-8.8c7.5-4.2,18.1-7.9,31-11.2c4.9-1.3,10.2-2.5,15.6-3.7c0.3-0.1,0.7-0.1,0.8-0.2c-3,0-5.9-0.1-8.8-0.2
		c-6.8-0.3-13.1-0.8-18.5-1.8c-9.1-1.7-10.5-5.3-2.8-7c6.6-1.5,23.3-3.5,27.2-3.8c5-0.2-8,1-3.9,0.7c0.9-0.1,6.2,0,5.8-1
		c-0.2-0.4-0.1-0.4,0,0c0,0.2-1.2,0.7-1.9,0.3c-0.7-0.5-3.6,0.6-7,1.9c-2.7,0.9-6.5,2.6-8.1,5c0.4,2,6,3.2,14.5,3.8
		c3.9,0.3,8,0.4,12.2,0.3c0.5,0,0.9,0,1.2-0.1c11.4-2.4,23.9-4.3,37.2-6.1c7.4-1,15-1.8,23.3-2.3c3.5-0.2,7-0.3,10.6-0.1
		c4.6,0.2,6.6,0.8,5.9,1.9c-0.7,1.1-3.2,1.9-6.4,2.7c-5,1.2-10.9,2-17.1,2.7c-7.1,0.8-14.6,1.4-22.3,1.9c-8.4,0.5-16.9,0.9-25.4,1.2
		c-0.5,0-0.9,0.1-1.3,0.1c-8.9,1.8-17,3.8-24.2,6c-13,3.9-21.1,8.9-25.7,13.7c-2.5,2.6-4.6,4.6-4.3,7.3"/>
</g>
</svg>
